<svg width="374" height="273" viewBox="0 0 374 273" fill="none" xmlns="http://www.w3.org/2000/svg">
<g clip-path="url(#clip0_368_1092)">
<path d="M227.307 153.053C227.945 153.053 228.557 153.325 229.008 153.809C229.459 154.293 229.713 154.949 229.713 155.634V180.595H275.853C276.491 180.595 277.103 180.867 277.554 181.351C278.005 181.835 278.258 182.491 278.258 183.176C278.258 183.86 278.005 184.516 277.554 185C277.103 185.484 276.491 185.756 275.853 185.756H229.713V272.079H224.902V155.634C224.902 154.949 225.155 154.293 225.606 153.809C226.057 153.325 226.669 153.053 227.307 153.053Z" fill="#E6E6E6"/>
<path d="M98.9045 271.493L90.231 271.75C88.9135 271.822 87.61 271.43 86.5197 270.634C85.5778 269.882 85.1458 268.866 85.3352 267.846L87.042 258.644C87.3636 256.909 89.3466 255.596 91.7566 255.525L96.5466 255.383C98.9565 255.312 101.004 256.505 101.414 258.219L103.592 267.305C103.834 268.313 103.454 269.353 102.553 270.159C101.505 271.019 100.224 271.487 98.9045 271.493Z" fill="#3F3D56"/>
<path d="M151.662 271.23L142.988 271.487C141.671 271.559 140.367 271.167 139.277 270.371C138.335 269.619 137.903 268.603 138.093 267.583L139.799 258.381C140.121 256.646 142.104 255.333 144.514 255.262L149.304 255.12C151.714 255.049 153.761 256.242 154.172 257.956L156.349 267.042C156.591 268.05 156.212 269.09 155.31 269.896C154.262 270.756 152.981 271.224 151.662 271.23Z" fill="#3F3D56"/>
<path d="M68.7868 193.115C68.3905 192.932 68.0644 192.609 67.8624 192.2C67.6605 191.791 67.5947 191.32 67.6761 190.865C67.7574 190.411 67.981 190 68.3098 189.7C68.6386 189.4 69.053 189.23 69.4843 189.217L168.092 186.296C168.341 186.289 168.588 186.334 168.82 186.429C169.053 186.525 169.265 186.668 169.446 186.851C169.627 187.035 169.772 187.254 169.873 187.498C169.975 187.741 170.031 188.004 170.038 188.271C170.051 188.809 169.864 189.331 169.519 189.723C169.174 190.114 168.699 190.342 168.197 190.358L69.5889 193.278C69.3136 193.287 69.0398 193.232 68.7868 193.115Z" fill="#3F3D56"/>
<path d="M105.178 158.097L76.9912 158.932L79.6191 261.017L107.806 260.183L105.178 158.097Z" fill="#E6E6E6"/>
<path d="M105.893 156.263L100.475 172.096L100.479 244.232L107.082 246.263L105.893 156.263Z" fill="#CCCCCC"/>
<path d="M90.9379 131.418C85.6646 131.579 81.6413 141.369 81.738 145.189L81.916 152.105L101.01 151.539L100.832 144.623C100.732 140.803 96.2114 131.267 90.9379 131.418Z" fill="#3F3D56"/>
<path d="M77.3569 201.208C76.3717 201.236 75.4163 200.844 74.7004 200.117C73.9845 199.39 73.5666 198.389 73.5382 197.332L73.2485 186.077C73.2213 185.02 73.5867 183.994 74.2643 183.226C74.942 182.458 75.8764 182.01 76.8619 181.981C77.8475 181.951 78.8035 182.343 79.5196 183.07C80.2357 183.797 80.6533 184.799 80.6806 185.857L80.9703 197.112C80.9964 198.169 80.6306 199.194 79.9532 199.962C79.2758 200.729 78.3421 201.178 77.3569 201.208Z" fill="#3F3D56"/>
<path d="M84.5099 159.174L84.3765 151.736L86.195 151.688L86.3283 159.102L87.9767 267.168L86.1578 267.222" fill="#3F3D56"/>
<path d="M108.41 176.569L75.7234 177.537C72.6014 173.453 72.3178 156.053 78.8333 152.742L81.3884 148.088L101.088 147.056L103.39 151.957C106.631 154.915 108.302 172.206 108.41 176.569Z" fill="#E6E6E6"/>
<path d="M96.1074 168.224L87.8415 168.469C86.2464 168.516 84.8903 166.296 84.8189 163.521C84.7474 160.746 85.9873 158.449 87.5824 158.402L95.8482 158.157C97.4433 158.11 98.7994 160.329 98.8709 163.105C98.9423 165.88 97.7024 168.176 96.1074 168.224Z" fill="#4792FC"/>
<path d="M80.1006 218.42L63.062 231.331L60.0854 260.441L79.962 253.317L80.1006 218.42Z" fill="#E6E6E6"/>
<path d="M159.589 156.847L131.402 157.682L134.03 259.767L162.216 258.932L159.589 156.847Z" fill="#E6E6E6"/>
<path d="M132.077 156.604L137.877 172.281L139.617 244.393L133.066 246.607L132.077 156.604Z" fill="#CCCCCC"/>
<path d="M173.685 128.505C175.725 128.505 177.379 126.125 177.379 123.19C177.379 120.255 175.725 117.876 173.685 117.876C171.644 117.876 169.99 120.255 169.99 123.19C169.99 126.125 171.644 128.505 173.685 128.505Z" fill="#E6E6E6"/>
<path d="M144.798 130.184C139.525 130.345 135.502 140.135 135.598 143.955L135.776 150.871L154.871 150.305L154.693 143.389C154.593 139.569 150.072 130.033 144.798 130.184Z" fill="#3F3D56"/>
<path d="M150.258 161.503L150.125 154.064L151.943 154.015L152.076 161.43L153.725 269.497L151.906 269.55" fill="#3F3D56"/>
<path d="M162.27 175.335L129.584 176.303C129.014 172.608 129.751 155.364 132.694 151.508L135.249 146.854L154.948 145.822L157.25 150.723C163.066 151.231 165.101 168.176 162.27 175.335Z" fill="#E6E6E6"/>
<path d="M150.008 168.543L141.742 168.788C140.147 168.835 138.782 166.267 138.699 163.064C138.617 159.86 139.848 157.215 141.443 157.168L149.709 156.923C151.304 156.876 152.669 159.444 152.751 162.647C152.834 165.851 151.603 168.496 150.008 168.543Z" fill="#4792FC"/>
<path d="M160.981 210.958L177.453 224.689L179.188 253.915L159.636 245.825L160.981 210.958Z" fill="#E6E6E6"/>
<path d="M156.381 75.5893C138.707 75.5893 118.395 54.5499 100.423 64.5463C46.0107 94.8127 53.5009 44.1666 37.8687 25.3308L38.3819 24.2266C50.2162 72.6511 60.924 149.814 100.66 63.2619C110.613 41.5808 143.281 75.0937 162.511 74.1051L162.544 75.4324C160.513 75.5375 158.459 75.5898 156.381 75.5893Z" fill="#F2F2F2"/>
<path d="M198.803 78.5666C184.713 90.0137 156.679 86.3974 147.98 106.006C121.639 165.374 99.1044 120.15 76.0415 115.259L75.8291 114.046C98.9167 116.1 123.681 112.913 147.445 104.829C168.921 97.5234 188.081 86.656 202.853 73.4137L203.627 74.4501C202.067 75.8492 200.459 77.2213 198.803 78.5666Z" fill="#F2F2F2"/>
<path d="M45.5421 75.9602C47.5825 75.9602 49.2365 73.5809 49.2365 70.6459C49.2365 67.7109 47.5825 65.3316 45.5421 65.3316C43.5017 65.3316 41.8477 67.7109 41.8477 70.6459C41.8477 73.5809 43.5017 75.9602 45.5421 75.9602Z" fill="#E6E6E6"/>
<path d="M160.127 32.7986C162.167 32.7986 163.821 30.4193 163.821 27.4843C163.821 24.5494 162.167 22.1701 160.127 22.1701C158.086 22.1701 156.432 24.5494 156.432 27.4843C156.432 30.4193 158.086 32.7986 160.127 32.7986Z" fill="#E6E6E6"/>
<path d="M79.3657 97.4087C77.6766 98.6159 75.9479 95.7426 77.6694 94.589C79.3584 93.3819 81.0871 96.2551 79.3657 97.4087Z" fill="#E6E6E6"/>
<path d="M141.906 3.11006C140.217 4.31727 138.488 1.44401 140.21 0.290404C141.899 -0.916735 143.628 1.95653 141.906 3.11006Z" fill="#E6E6E6"/>
<path d="M178.765 59.0192L177.691 58.7663L177.926 57.6132L177.209 57.4447L176.974 58.5979L175.899 58.3455L175.742 59.114L176.817 59.3668L176.581 60.5195L177.298 60.688L177.534 59.5348L178.608 59.7877L178.765 59.0192Z" fill="#E6E6E6"/>
<path d="M80.2685 20.3795C82.8536 20.3795 84.9492 18.1315 84.9492 15.3585C84.9492 12.5855 82.8536 10.3376 80.2685 10.3376C77.6835 10.3376 75.5879 12.5855 75.5879 15.3585C75.5879 18.1315 77.6835 20.3795 80.2685 20.3795Z" fill="#FF6584"/>
<path d="M114.504 9.00315C109.231 9.16381 105.208 18.9534 105.304 22.7735L105.482 29.6895L124.577 29.1239L124.399 22.2079C124.299 18.3878 119.778 8.85141 114.504 9.00315Z" fill="#3F3D56"/>
<path d="M125.874 270.89L117.2 271.147C115.883 271.22 114.579 270.828 113.489 270.031C112.547 269.279 112.115 268.263 112.304 267.243L114.011 258.042C114.333 256.306 116.316 254.993 118.726 254.922L123.516 254.78C125.926 254.709 127.973 255.902 128.384 257.616L130.561 266.702C130.803 267.71 130.424 268.75 129.522 269.556C128.474 270.416 127.193 270.885 125.874 270.89Z" fill="#3F3D56"/>
<path d="M129.742 53.0306L101.555 53.8655L106.867 260.219L135.054 259.384L129.742 53.0306Z" fill="#E6E6E6"/>
<path d="M118.463 152.918L118.33 145.48L120.149 145.431L120.282 152.846L121.93 260.912L120.111 260.966" fill="#3F3D56"/>
<path d="M135.291 71.9163L97.0995 73.0476C96.4337 68.7299 97.295 48.5816 100.733 44.0767L101.675 38.6994L128.046 37.9182L129.426 43.1591C133.212 46.6158 135.165 66.8187 135.291 71.9163Z" fill="#E6E6E6"/>
<path d="M128.88 38.5527L101.667 39.3588C100.662 39.3886 99.8329 38.8229 99.8142 38.0952C99.8117 37.9904 99.826 37.8859 99.8565 37.7863L104.083 23.8174C104.264 23.2192 104.985 22.7799 105.826 22.755L123.873 22.2205C124.714 22.1956 125.456 22.5915 125.667 23.1781L130.606 36.8755C130.859 37.5761 130.276 38.3051 129.303 38.5038C129.163 38.5323 129.022 38.5486 128.88 38.5527Z" fill="#E6E6E6"/>
<path d="M104.351 151.969C104.105 151.856 103.873 151.712 103.66 151.54C103.353 151.31 103.1 151.007 102.92 150.656C102.74 150.304 102.637 149.913 102.619 149.513L101.63 111.1C101.59 109.51 103.041 108.172 104.866 108.118L129.227 107.396C131.052 107.342 132.57 108.592 132.611 110.182L133.6 148.595C133.603 148.996 133.52 149.393 133.358 149.754C133.196 150.116 132.959 150.433 132.665 150.681C132.014 151.249 131.203 151.565 130.364 151.577L106.003 152.298C105.437 152.319 104.873 152.206 104.351 151.969Z" fill="#3F3D56"/>
<path d="M119.943 36.0806L111.677 36.3255C110.082 36.3727 108.734 34.4396 108.671 32.0167C108.609 29.5939 109.856 27.5838 111.451 27.5366L119.717 27.2917C121.312 27.2445 122.661 29.1777 122.723 31.6005C122.786 34.0233 121.538 36.0334 119.943 36.0806Z" fill="#4792FC"/>
<path d="M315.331 263.909H305.709V188.903C313.757 188.284 319.806 185.64 319.806 182.472C319.806 178.844 311.876 175.904 302.093 175.904C292.311 175.904 284.381 178.844 284.381 182.472C284.381 185.67 290.547 188.333 298.712 188.919V263.909H289.09C288.162 263.909 287.272 264.304 286.616 265.008C285.96 265.712 285.591 266.666 285.591 267.662C285.591 268.657 285.96 269.612 286.616 270.316C287.272 271.02 288.162 271.415 289.09 271.415H315.331C316.259 271.415 317.149 271.02 317.805 270.316C318.461 269.612 318.829 268.657 318.829 267.662C318.829 266.666 318.461 265.712 317.805 265.008C317.149 264.304 316.259 263.909 315.331 263.909Z" fill="#E6E6E6"/>
<path d="M296.017 225.83L292.856 229.525L278.068 218.206L282.732 212.753L296.017 225.83Z" fill="#C89275"/>
<path d="M287.935 235.581C287.967 236.408 288.15 237.219 288.476 237.969C288.801 238.718 289.262 239.391 289.832 239.948L289.971 240.087L294.116 235.241L300.16 228.174L295.698 223.78L294.892 224.724L294.808 224.821L290.793 226.859L289.942 227.293L289.796 227.365L289.476 231.055V231.059C288.952 231.665 288.546 232.378 288.282 233.154C288.017 233.93 287.9 234.756 287.935 235.581Z" fill="#21243D"/>
<path d="M312.391 262.687L307.918 264.144L300.549 246.332L307.15 244.181L312.391 262.687Z" fill="#C89275"/>
<path d="M300.37 271.469L300.425 271.666L314.847 266.967L313.087 260.75L311.948 261.121L311.828 261.16L306.467 260.632L306.308 260.618L304.279 263.621C302.791 264.105 301.543 265.205 300.81 266.676C300.077 268.148 299.919 269.872 300.37 271.469Z" fill="#21243D"/>
<path d="M275.509 169.422C275.509 169.422 246.953 198.998 265.006 208.153H270.586C271.799 203.924 273.663 199.943 276.101 196.374C276.628 195.634 278.603 195.784 279.152 195.063C282.501 190.659 286.131 186.877 288.638 187.027L288.039 207.462L287.068 214.752C286.558 218.52 300.944 251.421 300.944 251.421L309.985 247.609C309.985 247.609 300.565 220.51 300.455 216.603L308.004 173.647L275.509 169.422Z" fill="#21243D"/>
<path d="M273.128 170.881C273.274 171.104 273.464 171.289 273.685 171.422C274.049 171.643 274.443 171.8 274.853 171.888C281.282 173.453 302.286 176.698 307.738 175.15C308.408 174.963 308.845 174.699 308.987 174.352C309.443 173.255 309.385 168.621 309.117 163.026C309.068 161.978 307.991 160.843 307.926 159.746C307.881 158.923 308.848 158.149 308.796 157.313C308.44 151.655 307.981 145.889 307.673 142.245C307.479 139.902 307.347 138.437 307.347 138.437L310.663 116.004L310.508 115.729L310.333 115.636L299.639 109.957L299.057 108.36C298.888 107.901 298.594 107.506 298.214 107.227C297.834 106.948 297.385 106.797 296.924 106.795L289.88 106.764C289.515 106.761 289.154 106.853 288.828 107.03C288.502 107.208 288.22 107.466 288.006 107.784L286.097 110.62L273.478 119.298L273.526 119.457L279.448 138.788L279.477 140.294V140.297L279.697 152.411L279.085 154.053L279.775 156.747C279.775 156.747 279.458 159.895 277.759 162.235C276.219 164.359 274.258 166.573 273.371 168.371V168.375C272.879 169.368 272.714 170.228 273.128 170.881Z" fill="#4792FC"/>
<path d="M263.635 206.396L265.162 208.465C265.162 208.465 279.199 219 279.682 219.985L281.9 222.237L287.268 216.081L284.476 212.328C282.242 209.324 279.356 206.954 276.07 205.424L271.792 201.353L263.635 206.396Z" fill="#21243D"/>
<path d="M314.201 177.868L311.644 151.325L310.97 140.401L318.125 139.013C318.125 139.013 317.841 146.824 318.779 151.231C319.704 155.58 318.901 177.286 318.844 177.866C319.37 178.37 319.74 179.033 319.907 179.768C320.073 180.503 320.027 181.275 319.776 181.981C319.525 182.688 319.079 183.296 318.499 183.725C317.919 184.154 317.23 184.384 316.525 184.384C315.821 184.384 315.132 184.155 314.551 183.727C313.97 183.298 313.525 182.691 313.273 181.984C313.021 181.278 312.974 180.507 313.14 179.772C313.306 179.037 313.676 178.373 314.201 177.868Z" fill="#C89275"/>
<path d="M305.68 137.67L307.673 142.245L308.369 143.838L310.243 154.362L311.178 155.428L311.983 158.868L312.362 158.784L319.19 157.267L321.18 156.827C321.628 156.025 321.805 155.082 321.68 154.156C321.555 153.231 321.136 152.381 320.494 151.748C320.358 151.617 320.244 151.488 320.248 151.367C320.361 144.046 319.943 130.679 316.174 125.178C314.977 123.432 314.258 121.693 313.213 120.478C313.21 120.474 313.21 120.471 313.207 120.471L310.663 116.004L310.508 115.729L310.333 115.636L305.68 137.67Z" fill="#4792FC"/>
<path d="M293.953 104.883C299.13 104.883 303.326 100.382 303.326 94.8292C303.326 89.2765 299.13 84.7751 293.953 84.7751C288.777 84.7751 284.581 89.2765 284.581 94.8292C284.581 100.382 288.777 104.883 293.953 104.883Z" fill="#C89275"/>
<path d="M305.082 92.6659C305.357 90.9763 305.571 88.786 304.784 86.8389C304.12 85.2003 302.458 83.6639 300.61 83.8711C300.698 83.5012 300.688 83.1125 300.582 82.7482C300.476 82.3839 300.278 82.0582 300.01 81.8074C299.408 81.3007 298.707 80.9471 297.959 80.7733C296.223 80.2257 294.424 79.658 292.566 79.6475C290.481 79.6353 288.634 80.4014 287.502 81.7522L287.474 81.7959L287.134 82.6655C287.089 82.7821 287.02 82.8869 286.934 82.9725C286.847 83.0581 286.744 83.1226 286.632 83.1615C286.519 83.2013 286.4 83.2139 286.283 83.1985C286.165 83.183 286.053 83.1399 285.952 83.0723C285.843 82.9998 285.717 82.9593 285.588 82.9548C285.459 82.9503 285.331 82.982 285.217 83.0467C285.103 83.1114 285.007 83.2069 284.938 83.3238C284.869 83.4406 284.83 83.5748 284.824 83.713L284.806 84.0841L284.319 83.8761C284.197 83.8233 284.064 83.8063 283.934 83.8269C283.804 83.8476 283.682 83.9051 283.579 83.9936C283.477 84.0821 283.398 84.1983 283.351 84.3303C283.305 84.4623 283.292 84.6052 283.314 84.7443L283.379 85.1858C283.274 85.1654 283.167 85.1679 283.063 85.1929C282.959 85.218 282.862 85.2652 282.775 85.3317C282.652 85.4291 282.56 85.5661 282.514 85.723C282.467 85.8798 282.469 86.0484 282.518 86.2043C282.895 87.3592 283.54 88.3923 284.391 89.2066C284.773 89.5772 285.201 89.8893 285.663 90.1343C285.759 90.1863 285.859 90.2355 285.963 90.2819C289.698 91.9999 293.694 92.971 297.755 93.1474C297.371 93.9331 297.123 94.787 297.023 95.6677C296.967 96.1674 297.04 96.6739 297.234 97.1322C297.428 97.5904 297.735 97.9831 298.122 98.2674C298.29 98.3704 298.466 98.457 298.649 98.5262C298.823 98.5952 298.992 98.679 299.154 98.777C299.391 98.9308 299.586 99.1491 299.719 99.4098C299.852 99.6705 299.919 99.9643 299.912 100.262C299.906 100.559 299.826 100.849 299.682 101.102C299.537 101.356 299.332 101.564 299.089 101.706C299.089 101.706 299.786 102.619 299.898 102.604C300.342 102.496 300.744 102.241 301.046 101.875C303.076 99.761 304.434 96.6644 305.082 92.6659Z" fill="#21243D"/>
<path d="M346.115 248.082L346.522 238.256C350.769 235.821 355.506 234.535 360.321 234.509C353.694 240.321 354.522 251.525 350.029 259.341C348.61 261.767 346.701 263.82 344.442 265.347C342.183 266.873 339.633 267.836 336.98 268.162L331.435 271.804C330.674 267.253 330.842 262.58 331.926 258.105C333.011 253.631 334.988 249.462 337.719 245.885C339.27 243.895 341.049 242.123 343.012 240.61C344.341 244.366 346.115 248.082 346.115 248.082Z" fill="#F2F2F2"/>
<path d="M374 272.271C374 272.367 373.983 272.462 373.949 272.551C373.915 272.639 373.865 272.72 373.802 272.787C373.738 272.855 373.663 272.909 373.581 272.945C373.498 272.982 373.41 273 373.321 273H0.679297C0.499136 273 0.326353 272.923 0.19896 272.787C0.0715676 272.65 0 272.465 0 272.271C0 272.078 0.0715676 271.893 0.19896 271.756C0.326353 271.619 0.499136 271.543 0.679297 271.543H373.321C373.41 271.542 373.498 271.561 373.581 271.598C373.663 271.634 373.738 271.688 373.802 271.755C373.865 271.823 373.915 271.904 373.949 271.992C373.983 272.081 374 272.176 374 272.271Z" fill="#CCCCCC"/>
<path d="M160.287 198.715C159.302 198.743 158.346 198.35 157.63 197.624C156.915 196.897 156.497 195.896 156.468 194.839L156.179 183.583C156.153 182.527 156.519 181.503 157.196 180.736C157.874 179.969 158.807 179.521 159.792 179.492C160.777 179.463 161.732 179.854 162.448 180.58C163.164 181.306 163.582 182.307 163.611 183.363L163.9 194.619C163.926 195.675 163.561 196.7 162.883 197.468C162.206 198.236 161.272 198.684 160.287 198.715Z" fill="#3F3D56"/>
<path d="M324.229 239.851C318.582 239.851 312.392 239.622 305.661 239.164C270.842 236.792 225.741 228.546 178.666 215.945C131.591 203.344 88.1654 187.893 56.3898 172.439C40.911 164.91 29.0311 157.784 21.0805 151.258C12.6629 144.349 8.98088 138.326 10.1364 133.359C12.3878 123.681 32.3234 121.563 48.6509 121.491L48.6564 122.899C26.2345 122.997 13.0067 126.833 11.4096 133.699C9.37509 142.444 25.9674 156.097 56.9316 171.157C88.6374 186.577 131.983 201.998 178.983 214.579C225.984 227.16 271.002 235.392 305.744 237.759C339.673 240.071 360.3 236.381 362.334 227.636C364.023 220.375 352.888 209.679 330.981 197.517L331.584 196.268C347.502 205.104 365.979 217.779 363.607 227.977C362.452 232.944 356.564 236.405 346.107 238.262C340.146 239.32 332.825 239.851 324.229 239.851Z" fill="#CCCCCC"/>
<path d="M24.5171 230.63C20.036 230.63 17.1228 229.436 15.8334 227.061C13.2906 222.379 17.5492 214.163 28.4906 202.642L29.4097 203.646C19.2463 214.349 14.8273 222.413 16.9669 226.353C18.3208 228.846 22.35 229.739 28.6215 228.935C34.8473 228.138 43.0979 225.762 53.1443 221.872C73.8269 213.865 99.7753 200.359 126.21 183.841C152.643 167.324 176.395 149.774 193.092 134.424C196.298 131.475 199.209 128.638 201.742 125.993C205.067 122.604 208.135 118.937 210.916 115.025C214.661 109.57 215.925 105.37 214.571 102.877C212.31 98.7132 202.812 99.1048 187.824 103.981L187.444 102.634C203.523 97.4031 213.032 97.2462 215.705 102.168C217.365 105.227 216.11 109.833 211.972 115.86C209.149 119.834 206.034 123.559 202.657 127.001C200.105 129.667 197.173 132.524 193.945 135.492C177.191 150.896 153.37 168.499 126.87 185.057C100.369 201.617 74.3445 215.161 53.5898 223.196C43.4499 227.122 35.1016 229.523 28.777 230.333C27.3637 230.522 25.9413 230.621 24.5171 230.63Z" fill="#CCCCCC"/>
<path d="M263.983 172.844C260.741 172.775 243.323 172.239 240.467 172.371C240.305 171.764 234.891 179.207 234.759 179.254C234.671 179.353 234.607 179.474 234.573 179.605C234.538 179.737 234.533 179.876 234.559 180.01C234.585 180.144 234.641 180.269 234.722 180.375C234.803 180.481 234.906 180.564 235.024 180.618C235.342 180.825 263.421 180.268 263.762 180.341C263.909 180.338 264.052 180.291 264.176 180.205C264.299 180.119 264.397 179.997 264.459 179.853L264.646 179.403C264.666 178.631 264.901 174.689 264.69 174.014C264.742 173.888 264.763 173.75 264.753 173.612C264.743 173.474 264.701 173.341 264.631 173.225C264.561 173.109 264.465 173.014 264.352 172.947C264.239 172.881 264.112 172.845 263.983 172.844Z" fill="#E6E6E6"/>
<path opacity="0.17" d="M264.646 179.402C264.481 179.827 264.271 180.36 263.762 180.341L235.32 180.683C235.186 180.682 235.054 180.643 234.937 180.571C234.821 180.499 234.723 180.396 234.655 180.272C234.586 180.148 234.548 180.007 234.545 179.862C234.541 179.718 234.573 179.575 234.636 179.448L264.646 179.402Z" fill="black"/>
<path d="M240.6 172.279C240.294 171.712 232.69 131.352 232.055 131.014L226.864 124.202L226.4 123.828C225.755 123.447 224.207 123.704 224.346 124.762C225.566 131.034 233.41 166.759 233.582 172.329L234.527 179.424C234.544 179.545 234.584 179.66 234.645 179.764C234.706 179.867 234.786 179.955 234.881 180.022C234.976 180.09 235.083 180.136 235.195 180.156C235.307 180.177 235.422 180.172 235.532 180.142C235.803 180.111 236.062 180.004 236.282 179.833C236.503 179.662 236.678 179.432 236.791 179.166C236.862 178.916 240.955 172.425 240.6 172.279Z" fill="#E6E6E6"/>
<path opacity="0.17" d="M226.863 124.202L236.792 179.168C236.46 180.069 234.906 180.701 234.544 179.518C234.538 179.517 224.358 124.795 224.347 124.763C224.239 123.446 226.268 123.404 226.863 124.202Z" fill="black"/>
<path d="M227.162 126.45L232.204 133.99L237.864 162.826L235.233 165.288L227.162 126.45Z" fill="#4792FC"/>
<path d="M260.728 176.733L262.123 176.794C262.145 176.355 262.212 175.921 262.324 175.499C262.534 174.429 262.722 173.158 261.852 173.162C261.262 173.101 261.06 173.904 260.955 174.776C260.928 175.434 260.852 176.088 260.728 176.733Z" fill="#21243D"/>
<path d="M252.725 174.72L253.665 174.758L254.12 174.776C254.111 174.241 254.343 173.139 253.779 172.867C253.689 172.825 253.592 172.805 253.494 172.806C252.965 172.773 252.808 173.205 252.76 173.702C252.729 174.002 252.742 174.321 252.733 174.57C252.733 174.621 252.729 174.673 252.725 174.72Z" fill="#21243D"/>
<path d="M249.939 174.598L250.884 174.64L251.334 174.659C251.325 174.044 251.627 172.703 250.709 172.684C249.86 172.632 249.97 173.791 249.948 174.448C249.948 174.499 249.943 174.551 249.939 174.598Z" fill="#21243D"/>
<path d="M247.153 174.481L248.093 174.518L248.548 174.537C248.539 173.927 248.841 172.585 247.923 172.567C247.074 172.51 247.183 173.669 247.162 174.331C247.162 174.382 247.157 174.434 247.153 174.481Z" fill="#21243D"/>
<path d="M244.367 174.359L245.312 174.401L245.762 174.42C245.754 173.805 246.055 172.468 245.137 172.445C244.288 172.393 244.398 173.552 244.376 174.209C244.376 174.26 244.372 174.312 244.367 174.359Z" fill="#21243D"/>
<path d="M241.581 174.241L242.521 174.279L242.976 174.298C242.967 173.735 243.221 172.557 242.548 172.355H242.543C242.481 172.336 242.416 172.326 242.351 172.327C242.271 172.32 242.191 172.328 242.115 172.351H242.11C241.524 172.515 241.607 173.5 241.59 174.091C241.59 174.143 241.585 174.195 241.581 174.241Z" fill="#21243D"/>
<path d="M257.916 173.922L259.311 173.983C259.311 173.927 259.311 173.866 259.316 173.796C259.35 173.439 259.356 173.079 259.333 172.721C259.285 172.327 259.127 172.018 258.686 172.008C258.235 171.98 258.056 172.29 257.986 172.689C257.97 172.756 257.958 172.825 257.951 172.895V172.9C257.916 173.266 257.938 173.66 257.916 173.922Z" fill="#21243D"/>
<path d="M255.13 173.8L256.525 173.861C256.555 173.459 256.563 173.055 256.551 172.651C256.512 172.238 256.359 171.9 255.9 171.891C255.436 171.858 255.257 172.196 255.187 172.614C255.121 173.017 255.156 173.5 255.13 173.8Z" fill="#21243D"/>
<path d="M252.344 173.683L252.76 173.702L253.739 173.744C253.735 173.519 253.774 173.191 253.779 172.867C253.782 172.77 253.78 172.673 253.77 172.576C253.735 172.14 253.591 171.778 253.114 171.769C252.628 171.741 252.458 172.102 252.397 172.543C252.335 172.937 252.37 173.392 252.344 173.683Z" fill="#21243D"/>
<path d="M257.942 176.615L259.338 176.672C259.333 176.062 259.631 174.72 258.712 174.701C257.794 174.64 257.995 176.001 257.942 176.615Z" fill="#21243D"/>
<path d="M255.156 176.493L256.551 176.554C256.547 175.94 256.844 174.598 255.926 174.579C255.008 174.523 255.209 175.883 255.156 176.493Z" fill="#21243D"/>
<path d="M252.371 176.376L253.766 176.432C253.761 175.996 253.914 175.189 253.665 174.757C253.611 174.662 253.533 174.584 253.441 174.532C253.348 174.48 253.245 174.456 253.14 174.462C252.997 174.446 252.853 174.484 252.734 174.57C252.287 174.884 252.414 175.879 252.371 176.376Z" fill="#21243D"/>
<path d="M249.584 176.254L250.98 176.315C250.975 175.879 251.124 175.077 250.883 174.64C250.829 174.543 250.751 174.464 250.658 174.411C250.565 174.358 250.46 174.334 250.354 174.34C250.211 174.323 250.067 174.361 249.947 174.448C249.501 174.772 249.628 175.761 249.584 176.254Z" fill="#21243D"/>
<path d="M246.799 176.137L248.194 176.193C248.19 175.757 248.343 174.95 248.093 174.518C248.039 174.423 247.961 174.345 247.869 174.293C247.777 174.241 247.673 174.216 247.569 174.223C247.425 174.206 247.281 174.245 247.162 174.331C246.716 174.645 246.843 175.639 246.799 176.137Z" fill="#21243D"/>
<path d="M244.013 176.015L245.408 176.076C245.403 175.639 245.552 174.837 245.312 174.401C245.258 174.304 245.18 174.224 245.086 174.171C244.993 174.118 244.888 174.094 244.782 174.101C244.639 174.084 244.495 174.122 244.376 174.209C243.93 174.532 244.056 175.522 244.013 176.015Z" fill="#21243D"/>
<path d="M241.227 175.898L242.622 175.954C242.618 175.518 242.766 174.715 242.522 174.279C242.468 174.183 242.39 174.105 242.298 174.053C242.205 174.001 242.101 173.977 241.997 173.983C241.854 173.967 241.71 174.005 241.59 174.091C241.144 174.41 241.271 175.4 241.227 175.898Z" fill="#21243D"/>
<path d="M256.983 171.561L267.616 147.437L271.636 137.374L265.318 133.514C265.318 133.514 263.166 140.983 260.916 144.805C258.697 148.578 252.73 169.336 252.604 169.903C251.952 170.191 251.397 170.685 251.013 171.319C250.628 171.952 250.432 172.697 250.45 173.452C250.469 174.208 250.7 174.941 251.115 175.552C251.529 176.164 252.107 176.626 252.772 176.877C253.437 177.129 254.157 177.158 254.838 176.961C255.518 176.764 256.127 176.35 256.583 175.774C257.04 175.198 257.322 174.486 257.394 173.734C257.465 172.982 257.322 172.224 256.983 171.561Z" fill="#C89275"/>
<path d="M256.918 149.226L264.96 154.43L266.784 151.473L267.998 150.801L273.025 141.541L277.47 136.684L283.342 116.548L275.702 117.778L275.692 117.782C274.33 118.556 273.113 119.941 271.444 121.161C266.184 125.006 261.649 137.464 259.489 144.411C259.453 144.525 259.308 144.605 259.139 144.682C258.338 145.05 257.679 145.702 257.275 146.53C256.87 147.358 256.744 148.31 256.918 149.226Z" fill="#4792FC"/>
</g>
<defs>
<clipPath id="clip0_368_1092">
<rect width="374" height="273" fill="white"/>
</clipPath>
</defs>
</svg>
