<svg xmlns="http://www.w3.org/2000/svg" width="286" height="285" fill="none" viewBox="0 0 286 285"><g clip-path="url(#clip0_353_39)"><path fill="#F2F2F2" d="M32.8036 285L32.5547 284.897C24.1235 281.339 17.5179 273.812 14.4929 264.316C13.6733 261.676 13.154 258.932 12.9472 256.148L12.9269 255.882L13.1615 255.929C15.9614 256.491 18.9008 256.802 20.2104 256.923L12.863 251.484L12.8763 251.202C12.9907 248.546 14.5377 246.236 16.7834 245.366C19.0505 244.43 21.5989 245.13 23.2197 247.136C23.9502 248.023 24.7225 248.916 25.4692 249.779C28.0354 252.747 30.689 255.815 32.3669 259.437C34.8904 265.018 35.0274 271.575 32.7397 277.282L32.8036 285Z"/><path fill="#4792FC" d="M181.468 279.729L181.466 279.7C181.141 271.632 179.818 263.654 177.534 255.993L177.532 255.98C177.399 255.193 177.437 254.382 177.644 253.616C178.282 251.419 180.26 250.074 182.297 250.452C184.401 250.895 186.577 250.479 188.43 249.281C189.607 248.517 191.036 248.411 192.293 248.995C193.478 249.535 194.364 250.671 194.683 252.058C194.708 252.167 194.73 252.277 194.748 252.389C194.815 260.495 196.146 268.525 198.681 276.119L198.683 276.129C198.948 277.697 198.525 279.312 197.545 280.472C196.679 281.455 195.466 281.954 194.237 281.832C192.03 281.664 189.761 282.165 187.3 283.363C186.44 283.791 185.473 283.867 184.568 283.578C182.968 283.053 181.769 281.564 181.468 279.729Z"/><path fill="#F2F2F2" d="M110.942 168.905V274.849H177.283V168.905C177.285 167.341 176.375 165.958 175.039 165.496C174.733 165.383 174.411 165.327 174.088 165.331H114.146C112.38 165.327 110.945 166.925 110.942 168.901V168.905ZM136.832 205.307C136.868 200.932 140.068 197.417 143.979 197.457C147.84 197.497 150.96 200.989 150.996 205.307V217.6C150.977 221.976 147.792 225.506 143.88 225.486C139.995 225.465 136.85 221.947 136.832 217.6V205.307Z"/><path fill="#E6E6E6" d="M110.739 271.46V281.677C110.742 282.778 111.536 283.672 112.521 283.681H175.704C176.69 283.675 177.486 282.78 177.486 281.677V271.46H110.739Z"/><path fill="#E6E6E6" d="M6.57837 9.28666V202.725C6.582 207.858 10.3004 212.018 14.8883 212.022H271.112C275.7 212.018 279.418 207.858 279.422 202.725V9.28666C279.411 4.15882 275.695 0.00650486 271.112 0H14.8883C10.3049 0.00653042 6.58928 4.15883 6.57837 9.28666Z"/><path fill="#fff" d="M268.974 6.71445H17.0259C14.5717 6.72043 12.5849 8.9478 12.5847 11.6935V200.339C12.5889 203.081 14.5748 205.303 17.0259 205.307H268.974C271.425 205.303 273.411 203.081 273.415 200.339V11.6935C273.415 8.94779 271.428 6.72043 268.974 6.71445ZM205.419 140.739C204.666 142.403 203.139 143.451 201.472 143.446L201.445 143.444C199.03 143.068 196.606 142.819 194.172 142.699C194.55 143.002 194.883 143.37 195.157 143.789C195.863 144.921 196.08 146.347 195.749 147.676C195.199 150.073 195.225 152.66 195.829 155.586C196.049 156.61 195.939 157.688 195.519 158.63C194.766 160.295 193.239 161.342 191.572 161.338L191.545 161.336C185.777 160.437 179.937 160.263 174.135 160.817C174.112 160.98 174.083 161.144 174.045 161.308C173.495 163.704 173.521 166.292 174.126 169.218C174.345 170.242 174.235 171.319 173.816 172.262C173.063 173.926 171.535 174.974 169.868 174.969L169.842 174.967C163.918 174.045 157.919 173.887 151.963 174.496C151.917 176.16 152.072 177.824 152.422 179.442C152.641 180.466 152.532 181.543 152.112 182.486C151.359 184.15 149.832 185.198 148.164 185.193L148.138 185.191C140.989 184.077 133.736 184.077 126.586 185.191H126.575C125.859 185.194 125.153 185.004 124.517 184.636C122.703 183.533 121.882 181.112 122.586 178.941C122.802 178.257 122.962 177.553 123.065 176.838C116.513 175.993 109.892 176.08 103.359 177.097H103.348C102.632 177.1 101.926 176.91 101.29 176.542C99.4762 175.44 98.6551 173.019 99.3591 170.847C100.132 168.614 100.163 166.144 99.4484 163.887C99.1115 162.828 99.1114 161.672 99.4481 160.614C94.5234 160.333 89.5859 160.575 84.7019 161.336H84.6904C83.9746 161.339 83.2688 161.148 82.633 160.78C80.8187 159.678 79.9976 157.257 80.7016 155.086C81.4741 152.852 81.5058 150.383 80.7909 148.125C80.3342 146.691 80.5018 145.1 81.2441 143.824C81.9353 142.619 83.0956 141.851 84.3724 141.754C84.4728 141.746 84.5736 141.742 84.6755 141.742C87.1778 142.232 89.7043 142.551 92.2411 142.698C90.6228 141.508 89.9448 139.232 90.6015 137.194C91.374 134.96 91.4057 132.491 90.6908 130.234C90.2341 128.799 90.4017 127.209 91.144 125.933C91.1762 125.878 91.2136 125.829 91.2474 125.776C89.4421 125.915 87.6411 126.125 85.8442 126.404H85.8327C85.1169 126.408 84.411 126.217 83.7753 125.849C81.961 124.747 81.1399 122.326 81.8439 120.154C82.6164 117.921 82.6481 115.451 81.9332 113.194C81.4765 111.76 81.6441 110.169 82.3864 108.893C83.0776 107.688 84.2379 106.92 85.5147 106.822C85.6151 106.815 85.7159 106.811 85.8178 106.811C88.8266 107.4 91.8699 107.743 94.9233 107.837C94.1443 106.581 93.953 104.982 94.4092 103.541C95.1817 101.307 95.2133 98.8379 94.4984 96.5804C94.0418 95.1462 94.2094 93.5556 94.9517 92.2795C95.6429 91.0744 96.8031 90.3064 98.08 90.2089C98.1804 90.2014 98.2812 90.1974 98.383 90.1974C100.929 90.6956 103.5 91.0177 106.082 91.1617C105.528 89.9868 105.437 88.6061 105.832 87.3532C106.605 85.1196 106.636 82.6503 105.921 80.3928C105.465 78.9585 105.632 77.368 106.375 76.0919C107.066 74.8868 108.226 74.1188 109.503 74.0213C109.603 74.0138 109.704 74.0098 109.806 74.0098C112.802 74.5965 115.832 74.9388 118.873 75.0339C118.459 73.9398 118.425 72.7121 118.778 71.5916C119.551 69.358 119.582 66.8886 118.867 64.6312C118.411 63.1969 118.578 61.6064 119.321 60.3303C120.012 59.1252 121.172 58.3572 122.449 58.2596C122.549 58.2521 122.65 58.2482 122.752 58.2482C129.888 59.6533 137.188 59.6544 144.324 58.2513H144.333C144.884 58.3782 145.452 58.3782 146.003 58.2513H146.011C153.148 59.6544 160.448 59.6533 167.583 58.2482C167.685 58.2482 167.786 58.2521 167.886 58.2596C169.163 58.3572 170.324 59.1252 171.015 60.3303C171.757 61.6064 171.925 63.1969 171.468 64.6312C170.753 66.8886 170.785 69.358 171.557 71.5916C171.91 72.7121 171.877 73.9398 171.463 75.0339C174.503 74.9388 177.533 74.5965 180.529 74.0098C180.631 74.0098 180.732 74.0138 180.832 74.0213C182.109 74.1188 183.27 74.8868 183.961 76.0919C184.703 77.368 184.871 78.9585 184.414 80.3928C183.699 82.6503 183.731 85.1196 184.503 87.3532C184.899 88.6061 184.808 89.9868 184.253 91.1617C186.835 91.0177 189.406 90.6956 191.952 90.1974C192.054 90.1974 192.155 90.2014 192.255 90.2089C193.532 90.3064 194.693 91.0744 195.384 92.2795C196.126 93.5556 196.294 95.1462 195.837 96.5804C195.122 98.8379 195.154 101.307 195.926 103.541C196.384 104.986 196.19 106.588 195.407 107.846C195.747 108.133 196.048 108.474 196.3 108.858C197.006 109.99 197.223 111.416 196.891 112.745C196.341 115.142 196.367 117.729 196.972 120.655C197.191 121.679 197.081 122.757 196.662 123.699C196.508 124.034 196.322 124.349 196.105 124.638C197.887 124.463 199.665 124.201 201.439 123.854H201.448C202.874 123.848 204.217 124.608 205.057 125.898C205.763 127.029 205.98 128.455 205.649 129.785C205.098 132.181 205.125 134.768 205.729 137.695C205.948 138.719 205.839 139.796 205.419 140.739Z"/><path fill="#E6E6E6" d="M260.802 32.7012H25.0553C24.5375 32.6884 24.127 32.2085 24.1384 31.6293C24.1495 31.068 24.5536 30.6159 25.0553 30.6035H260.802C261.32 30.6163 261.731 31.0962 261.719 31.6755C261.708 32.2368 261.304 32.6888 260.802 32.7012Z"/><path fill="#4792FC" d="M145.777 180.168L145.751 180.166C138.601 179.052 131.348 179.052 124.199 180.166H124.187C123.471 180.169 122.766 179.979 122.13 179.611C120.316 178.508 119.494 176.087 120.198 173.916C120.971 171.682 121.003 169.213 120.288 166.956C119.831 165.521 119.999 163.931 120.741 162.655C121.432 161.45 122.592 160.682 123.869 160.584C123.97 160.577 124.07 160.573 124.172 160.573C131.308 161.978 138.608 161.979 145.744 160.576H145.753C147.18 160.57 148.522 161.33 149.363 162.62C150.069 163.751 150.286 165.177 149.954 166.507C149.404 168.903 149.43 171.49 150.035 174.417C150.254 175.441 150.144 176.518 149.725 177.461C148.972 179.125 147.445 180.173 145.777 180.168Z"/><path fill="#C89275" d="M167.763 138.401L162.012 133.076C157.699 135.605 151.135 145.703 151.135 145.703L135.995 157.886C134.176 157.983 132.773 159.71 132.859 161.745C132.946 163.779 134.49 165.35 136.308 165.253C137.488 165.19 138.548 164.425 139.086 163.249L159.658 151.087L167.763 138.401Z"/><path fill="#21243D" d="M177.467 118.134C180.787 121.28 181.199 126.84 178.388 130.554C178.073 130.97 177.724 131.353 177.345 131.697L173.688 135.023C173.688 135.023 164.564 149.717 159.816 151.422L147.624 158.548L142.126 152.381L153.176 142.307C153.176 142.307 158.258 136.929 158.767 132.992C159.078 130.581 162.726 124.014 166.381 119.143C169.187 115.44 174.145 114.983 177.455 118.122L177.467 118.134Z"/><path fill="#FFE2B6" d="M165.647 277.606L160.45 277.605L157.979 255.181L165.648 255.182L165.647 277.606Z"/><path fill="#000" d="M165.83 283.67L149.851 283.67V283.443C149.851 279.601 152.635 276.485 156.07 276.485L158.989 274.008L164.435 276.486L165.83 276.486L165.83 283.67Z"/><path fill="#FFE2B6" d="M205.24 247.007L202.779 252.127L183.955 243.944L187.587 236.387L205.24 247.007Z"/><path fill="#000" d="M210.101 249.698L202.534 265.444L202.356 265.337C199.331 263.517 198.197 259.298 199.823 255.913L199.823 255.913L199.255 251.863L203.785 247.67L204.445 246.296L210.101 249.698Z"/><path fill="#000" d="M155.823 174.916L151.236 215.964L153.529 229.726L194.806 249.957L197.099 241.619C186.548 234.396 175.27 223.465 168.163 222.661C168.163 222.661 167.574 215.377 172.665 210.881C173.692 209.974 173.467 208.747 173.883 207.635C174.168 206.87 175.305 206.073 175.596 205.288C175.973 204.271 175.506 203.261 175.885 202.227C176.099 201.646 176.907 201.61 177.119 201.028C177.48 200.036 177.244 198.5 177.596 197.52C178.349 195.426 179.072 193.378 179.733 191.459C181.789 185.483 183.237 180.749 183.054 179.726C182.48 176.519 155.823 174.916 155.823 174.916Z"/><path fill="#000" d="M155.033 215.845L152.633 233.18L158.689 268.557H166.715C169.599 256.67 169.747 241.047 167.002 227.83L155.033 215.845Z"/><path fill="#21243D" d="M160.189 124.763L163.889 117.55L167.861 113.985L175.314 112.702L177.385 114.483C184.836 127.225 187.615 142.688 185.144 157.661L184.562 161.186L184.193 163.423L184.353 166.097L183.109 169.99L183.28 172.841L183.372 174.364L183.464 175.892L183.592 178.025C183.821 179.242 182.667 179.082 182.83 180.155C183.117 182.039 184.402 184.832 182.449 184.841L162.269 180.155C157.142 180.178 152.369 173.339 157.319 167.801L160.189 124.763Z"/><path fill="#C89275" d="M169.635 110.693C175.047 110.693 179.435 105.784 179.435 99.7293C179.435 93.6743 175.047 88.7658 169.635 88.7658C164.223 88.7658 159.835 93.6743 159.835 99.7293C159.835 105.784 164.223 110.693 169.635 110.693Z"/><path fill="#000" d="M169.801 110.381C171.235 110.406 172.668 110.294 174.085 110.046C175.489 109.727 178.631 107.151 179.507 105.601C180.157 104.45 180.573 102.651 180.808 101.346C181.447 97.8515 180.731 94.2181 178.839 91.3476C178.479 90.7539 177.983 90.28 177.403 89.976C177.351 89.9534 177.298 89.9335 177.245 89.9164C176.399 89.6674 175.639 89.1412 175.062 88.4053C174.95 88.2565 174.829 88.1168 174.699 87.9875C174.047 87.3721 173.274 86.938 172.444 86.7207C171.103 86.3193 169.163 86.7177 166.678 87.9061C165.429 88.5031 164.063 88.287 163.013 88.0321C162.893 88.0062 162.77 88.0534 162.689 88.1561C162.242 88.6256 161.653 88.8884 161.04 88.8917C160.664 88.9101 160.27 89.4918 159.794 90.2504C159.686 90.4226 159.56 90.6236 159.469 90.7458L159.457 90.511L159.244 90.7729C158.152 92.1205 158.242 94.204 159.447 95.4266C159.77 95.7552 160.155 95.999 160.574 96.1404C160.952 96.2529 161.339 96.3219 161.729 96.3463C161.965 96.3701 162.21 96.3947 162.444 96.4402C163.974 96.7907 165.227 98.0147 165.743 99.6635C165.96 100.339 166.624 100.69 167.228 100.448C167.323 100.41 167.413 100.358 167.496 100.294C167.991 99.8625 168.644 99.7295 169.244 99.938C169.499 100.097 169.698 100.349 169.807 100.652C169.939 100.99 170.158 101.276 170.436 101.474C171.388 102.023 171.454 104.455 171.112 106.482C170.782 108.436 170.131 109.85 169.528 109.92C169.064 109.974 169.011 110.01 168.977 110.102L168.947 110.185L168.999 110.261C169.256 110.365 169.529 110.406 169.801 110.381Z"/><path fill="#4792FC" d="M149.966 103.916L149.939 103.914C142.79 102.799 135.537 102.799 128.387 103.914H128.376C127.66 103.917 126.954 103.726 126.318 103.358C124.504 102.256 123.683 99.8352 124.387 97.6638C125.159 95.4302 125.191 92.9609 124.476 90.7034C124.02 89.2691 124.187 87.6786 124.929 86.4025C125.621 85.1974 126.781 84.4294 128.058 84.3318C128.158 84.3244 128.259 84.3204 128.361 84.3204C135.497 85.7256 142.797 85.7266 149.933 84.3235H149.942C151.368 84.3179 152.711 85.078 153.551 86.3674C154.257 87.4993 154.474 88.9251 154.143 90.2547C153.592 92.6509 153.618 95.2383 154.223 98.1647C154.442 99.1884 154.333 100.266 153.913 101.208C153.16 102.873 151.633 103.92 149.966 103.916Z"/><path fill="#C89275" d="M159.129 129.738L163.184 122.725C160.435 118.228 150.704 112.116 150.704 112.116L138.12 96.7163C137.821 94.7073 136.124 93.3493 134.328 93.6833C132.532 94.0172 131.318 95.9166 131.617 97.9256C131.811 99.2293 132.613 100.317 133.721 100.778L146.921 122.214L159.129 129.738Z"/><path fill="#21243D" d="M178.254 138.151C175.85 142.207 170.962 143.315 167.337 140.625C166.93 140.324 166.55 139.981 166.2 139.601L162.82 135.926C162.82 135.926 148.65 127.648 146.582 122.57L137.297 107.837L143.522 101.554L154.343 112.559C154.343 112.559 159.325 119.004 162.879 119.109C165.056 119.174 171.312 122.459 176.063 125.951C179.678 128.636 180.664 134.091 178.264 138.136L178.254 138.151Z"/><path fill="#4792FC" d="M83.8591 283.607L83.8327 283.604C76.6832 282.49 69.4302 282.49 62.2808 283.604H62.2692C61.5535 283.607 60.8476 283.417 60.2118 283.049C58.3975 281.947 57.5765 279.526 58.2805 277.354C59.053 275.121 59.0846 272.651 58.3697 270.394C57.9131 268.96 58.0807 267.369 58.823 266.093C59.5142 264.888 60.6744 264.12 61.9513 264.022C62.0517 264.015 62.1525 264.011 62.2544 264.011C69.3901 265.416 76.6903 265.417 83.8264 264.014H83.8353C85.2618 264.008 86.6041 264.769 87.4447 266.058C88.1509 267.19 88.3679 268.616 88.0363 269.945C87.486 272.342 87.512 274.929 88.1167 277.855C88.336 278.879 88.2263 279.957 87.8069 280.899C87.0539 282.563 85.5266 283.611 83.8591 283.607Z"/><path fill="#4792FC" d="M89.9514 265.715L89.925 265.713C82.7755 264.598 75.5225 264.598 68.373 265.713H68.3615C67.6457 265.716 66.9399 265.525 66.3041 265.158C64.4898 264.055 63.6688 261.634 64.3728 259.463C65.1453 257.229 65.1769 254.76 64.462 252.502C64.0054 251.068 64.173 249.478 64.9153 248.202C65.6065 246.996 66.7667 246.228 68.0436 246.131C68.144 246.123 68.2448 246.119 68.3466 246.119C75.4824 247.525 82.7826 247.526 89.9186 246.123H89.9276C91.354 246.117 92.6964 246.877 93.537 248.166C94.2432 249.298 94.4602 250.724 94.1286 252.054C93.5783 254.45 93.6043 257.037 94.2089 259.964C94.4283 260.987 94.3186 262.065 93.8992 263.007C93.1462 264.672 91.6189 265.719 89.9514 265.715Z"/><path fill="#4792FC" d="M36.6392 270.592L36.6555 270.569C41.4866 264.568 45.5506 257.847 48.7315 250.598L48.738 250.587C49.1368 249.922 49.6733 249.375 50.3019 248.992C52.1347 247.928 54.387 248.524 55.6001 250.393C56.8209 252.36 58.6313 253.773 60.7032 254.376C62.0209 254.756 63.1045 255.803 63.6333 257.206C64.1383 258.522 64.0567 260.027 63.4135 261.265C63.3628 261.362 63.3092 261.458 63.2522 261.552C58.2136 267.377 54.1223 274.141 51.1626 281.54L51.1576 281.548C50.3625 282.873 49.0476 283.691 47.622 283.748C46.3883 283.768 45.2111 283.17 44.4126 282.118C42.9469 280.265 41.0168 278.84 38.5115 277.76C37.6306 277.39 36.8944 276.684 36.4317 275.768C35.6213 274.137 35.7016 272.135 36.6392 270.592Z"/><path fill="#CACACA" d="M285.549 284.256L0.451008 284.387C0.20062 284.386 -0.0013035 284.157 6.33656e-06 283.877C0.00130094 283.599 0.202467 283.374 0.451008 283.373L285.549 283.242C285.799 283.243 286.001 283.472 286 283.752C285.999 284.03 285.798 284.255 285.549 284.256Z"/><path fill="#21243D" d="M61.0181 22.9643C62.7964 22.9643 64.2381 21.3155 64.2381 19.2816C64.2381 17.2477 62.7964 15.5989 61.0181 15.5989C59.2397 15.5989 57.7981 17.2477 57.7981 19.2816C57.7981 21.3155 59.2397 22.9643 61.0181 22.9643Z"/><path fill="#21243D" d="M72.1419 22.9643C73.9202 22.9643 75.3618 21.3155 75.3618 19.2816C75.3618 17.2477 73.9202 15.5989 72.1419 15.5989C70.3635 15.5989 68.9219 17.2477 68.9219 19.2816C68.9219 21.3155 70.3635 22.9643 72.1419 22.9643Z"/><path fill="#21243D" d="M83.2654 22.9643C85.0437 22.9643 86.4854 21.3155 86.4854 19.2816C86.4854 17.2477 85.0437 15.5989 83.2654 15.5989C81.487 15.5989 80.0454 17.2477 80.0454 19.2816C80.0454 21.3155 81.487 22.9643 83.2654 22.9643Z"/><path fill="#21243D" d="M95.949 22.1923C95.8501 22.1923 95.7514 22.1494 95.6768 22.0642L93.5041 19.5794C93.3593 19.4138 93.3593 19.1492 93.5041 18.9836L95.6768 16.4991C95.8242 16.331 96.0656 16.3283 96.2152 16.4924C96.3656 16.6569 96.3682 16.9267 96.2212 17.0948L94.309 19.2815L96.2212 21.4685C96.3682 21.6365 96.3656 21.9063 96.2152 22.0708C96.1412 22.1519 96.0451 22.1923 95.949 22.1923Z"/><path fill="#21243D" d="M99.6 22.1923C99.5039 22.1923 99.4078 22.1519 99.3338 22.0708C99.1834 21.9063 99.1808 21.6367 99.3278 21.4684L101.24 19.2815L99.3278 17.0948C99.1808 16.9267 99.1834 16.6569 99.3338 16.4924C99.4838 16.3277 99.7252 16.3308 99.8722 16.4991L102.045 18.9836C102.19 19.1492 102.19 19.4138 102.045 19.5794L99.8722 22.0642C99.7977 22.1495 99.6989 22.1923 99.6 22.1923Z"/><path fill="#21243D" d="M213.262 16.0253H209.222C208.761 16.0253 208.388 16.4427 208.388 16.9582V21.4822C208.388 21.9976 208.761 22.4151 209.222 22.4151H213.262C213.723 22.4151 214.1 21.9976 214.1 21.4822V16.9582C214.1 16.4427 213.723 16.0253 213.262 16.0253Z"/><path fill="#21243D" d="M203.362 16.0253H199.322C198.861 16.0253 198.488 16.4427 198.488 16.9582V21.4822C198.488 21.9976 198.861 22.4151 199.322 22.4151H203.362C203.823 22.4151 204.2 21.9976 204.2 21.4822V16.9582C204.2 16.4427 203.823 16.0253 203.362 16.0253Z"/><path fill="#21243D" d="M222.591 16.2383H218.551C218.09 16.2383 217.717 16.6557 217.717 17.1712V21.6952C217.717 22.2106 218.09 22.6281 218.551 22.6281H222.591C223.052 22.6281 223.429 22.2106 223.429 21.6952V17.1712C223.429 16.6557 223.052 16.2383 222.591 16.2383Z"/><path fill="#21243D" d="M161.699 17.9592H129.406C128.842 17.9592 128.389 18.4704 128.389 19.0967C128.389 19.7229 128.842 20.234 129.406 20.234H161.699C162.258 20.234 162.715 19.7228 162.715 19.0967C162.715 18.4705 162.258 17.9592 161.699 17.9592Z"/></g><defs><clipPath id="clip0_353_39"><rect width="286" height="270" fill="#fff"/></clipPath></defs></svg>