<svg xmlns="http://www.w3.org/2000/svg" width="270" height="270" fill="none" viewBox="0 0 270 270"><g clip-path="url(#clip0_366_624)"><path fill="#F2F2F2" d="M13.0279 92.0077L0.00914546 83.6294C-0.166463 74.6655 1.57564 65.7881 5.08418 57.768C8.08571 73.3339 23.8817 80.7397 31.1698 94.3307C33.4145 98.5895 34.7916 103.371 35.1992 108.32C35.6067 113.27 35.0342 118.261 33.5242 122.923L34.3804 134.992C27.6518 132.689 21.4402 128.747 16.1734 123.438C10.9066 118.128 6.70992 111.577 3.87242 104.235C2.3163 100.099 1.22227 95.7545 0.616169 91.3056C6.68606 92.0437 13.0279 92.0077 13.0279 92.0077Z"/><path fill="#F2F2F2" d="M247.061 244.432L247.461 234.175C251.622 231.634 256.264 230.291 260.982 230.264C254.488 236.331 255.3 248.026 250.897 256.184C249.506 258.717 247.635 260.859 245.422 262.453C243.208 264.047 240.709 265.051 238.11 265.391L232.675 269.193C231.929 264.443 232.094 259.565 233.157 254.894C234.22 250.224 236.157 245.872 238.834 242.139C240.354 240.062 242.096 238.212 244.021 236.632C245.322 240.553 247.061 244.432 247.061 244.432Z"/><path fill="#C89275" d="M233.058 263.915L228.137 263.915L225.796 242.227L233.059 242.227L233.058 263.915Z"/><path fill="#2F2E41" d="M234.313 269.366L218.446 269.365V269.136C218.446 267.264 219.097 265.469 220.255 264.146C221.413 262.823 222.984 262.079 224.622 262.079L227.521 259.567L232.928 262.079L234.314 262.079L234.313 269.366Z"/><path fill="#C89275" d="M210.196 263.915L205.275 263.915L202.934 242.227L210.197 242.227L210.196 263.915Z"/><path fill="#2F2E41" d="M211.451 269.366L195.583 269.365V269.136C195.584 267.264 196.234 265.469 197.393 264.146C198.551 262.823 200.122 262.079 201.76 262.079L204.658 259.567L210.066 262.079L211.451 262.079L211.451 269.366Z"/><path fill="#2F2E41" d="M208.066 145.346L240.075 146.26C246.154 150.033 246.246 158.199 244.254 167.893C244.254 167.893 244.927 173.656 243.582 175.192C242.237 176.729 241.565 176.729 242.237 179.418C242.909 182.107 239.357 186.499 239.788 186.992C240.22 187.485 241.228 190.174 241.228 190.174L237.866 212.071C237.866 212.071 235.513 250.102 234.84 250.871C234.168 251.639 233.496 250.871 234.168 252.791C234.84 254.712 235.513 253.944 234.84 254.712C234.245 255.446 233.684 256.215 233.159 257.017H225.031C225.031 257.017 224.418 253.175 224.418 252.791C224.418 252.407 223.745 250.102 223.745 249.718C223.745 249.334 224.34 248.655 224.34 248.655C224.545 247.874 224.684 247.072 224.754 246.261C224.754 245.492 226.771 215.913 226.771 215.913L222.737 177.497L212.987 215.144C212.987 215.144 212.987 248.181 212.314 248.95C211.642 249.718 211.642 249.334 211.978 250.871C212.314 252.407 213.659 252.023 212.651 253.175C211.642 254.328 211.306 252.407 211.642 254.328L211.978 256.249L201.892 256.414C201.892 256.414 200.547 253.175 201.219 252.023C201.892 250.871 201.851 251.185 201.031 249.299C200.211 247.413 199.875 247.029 200.211 246.645C200.547 246.261 200.547 244.217 200.547 244.217L202.228 207.461C202.228 207.461 202.564 168.662 202.564 167.509C202.59 166.916 202.494 166.325 202.285 165.781V164.217L203.573 158.674L208.066 145.346Z"/><path fill="#C89275" d="M227.294 69.2981C232.787 69.2981 237.239 64.2105 237.239 57.9346C237.239 51.6588 232.787 46.5712 227.294 46.5712C221.801 46.5712 217.349 51.6588 217.349 57.9346C217.349 64.2105 221.801 69.2981 227.294 69.2981Z"/><path fill="#fff" d="M222.321 76.8085C220.178 78.264 218.897 80.9381 218.161 83.6592C216.799 88.6971 215.979 93.9058 215.719 99.1703L214.942 114.931L205.318 148.49C213.659 156.555 245.012 150.323 245.012 150.323C245.012 150.323 245.975 149.957 245.012 148.857C244.05 147.757 243.113 148.732 244.075 147.632C245.038 146.532 244.374 147.757 244.054 146.658C243.733 145.558 244.054 146.291 244.374 145.924C244.695 145.558 241.891 142.259 241.891 142.259L244.457 122.995L247.665 84.1398C243.816 78.6413 236.073 75.4 236.073 75.4L234.073 71.2855L224.07 72.1999L222.321 76.8085Z"/><path fill="#2F2E41" d="M220.957 51.2657C221.342 51.2691 221.725 51.3265 222.098 51.4367C222.832 51.6384 223.578 51.7813 224.33 51.8644C226.632 52.1119 228.796 53.2338 230.474 55.0509C232.153 56.868 233.251 59.2755 233.592 61.8889C234.17 61.3132 235.485 60.2542 236.562 61.2384C236.579 61.2541 236.588 61.2621 236.626 61.2416C237.342 60.8536 238.613 56.0779 238.651 51.8731C238.672 49.6413 238.364 46.7914 236.784 45.8889L236.701 45.8413L236.679 45.738C236.574 45.2359 235.394 44.379 233.345 43.712C229.621 42.4999 224.069 40.1387 220.943 43.6136C220.706 44.7851 219.936 47.2921 219.159 47.5762C218.298 47.8908 217.554 48.1622 217.437 49.3689C217.339 51.0862 217.346 52.8092 217.458 54.5254C217.75 53.4753 218.323 52.5561 219.096 51.8974C219.645 51.4746 220.295 51.2542 220.957 51.2657Z"/><path fill="#C89275" d="M202.446 114.054L218.692 102.166L210.509 89.7378L202.43 101.094L177.256 102.858C176.593 102.11 175.755 101.599 174.843 101.386C173.931 101.173 172.984 101.268 172.118 101.659C171.252 102.05 170.505 102.721 169.967 103.589C169.429 104.457 169.124 105.485 169.088 106.548C169.053 107.612 169.289 108.663 169.768 109.576C170.247 110.488 170.948 111.222 171.785 111.687C172.622 112.152 173.56 112.329 174.484 112.195C175.407 112.062 176.277 111.625 176.987 110.936L202.446 114.054Z"/><path fill="#fff" d="M233.77 85.573C234.713 92.0929 216.907 104.543 216.907 104.543C216.907 103.013 206.28 114.566 205.8 113.297C204.437 109.689 203.478 101.146 201.573 99.7782C200.484 98.9961 208.134 91.6495 208.134 91.6495C208.134 91.6495 212.139 87.0395 217.395 81.2247C218.854 79.5493 220.661 78.323 222.646 77.6598C224.632 76.9967 226.732 76.9183 228.751 77.432C228.751 77.432 232.827 79.0531 233.77 85.573Z"/><path fill="#C89275" d="M267.255 117.174L256.509 98.8677L245.808 108.478L255.915 117.467L257.992 146.188C257.351 146.96 256.922 147.928 256.755 148.975C256.588 150.021 256.691 151.101 257.051 152.082C257.412 153.062 258.015 153.902 258.786 154.498C259.557 155.094 260.463 155.421 261.394 155.439C262.325 155.457 263.24 155.165 264.028 154.599C264.817 154.032 265.444 153.216 265.833 152.25C266.222 151.284 266.357 150.209 266.221 149.156C266.085 148.104 265.683 147.12 265.066 146.323L267.255 117.174Z"/><path fill="#fff" d="M241.671 81.9947C247.356 80.7795 258.627 100.856 258.627 100.856C257.288 100.889 267.622 112.784 266.521 113.359C263.394 114.993 255.938 116.269 254.782 118.474C254.121 119.735 247.531 111.151 247.531 111.151C247.531 111.151 243.412 106.673 238.213 100.793C236.716 99.1613 235.605 97.1237 234.982 94.8696C234.36 92.6155 234.247 90.2181 234.654 87.9007C234.654 87.9007 235.986 83.2098 241.671 81.9947Z"/><path fill="#CCC" d="M270 269.456C270 269.527 269.988 269.598 269.964 269.664C269.94 269.731 269.905 269.791 269.861 269.841C269.817 269.892 269.764 269.932 269.706 269.959C269.648 269.986 269.586 270 269.524 270H157.377C157.251 270 157.13 269.943 157.041 269.841C156.952 269.739 156.901 269.6 156.901 269.456C156.901 269.312 156.952 269.173 157.041 269.071C157.13 268.969 157.251 268.912 157.377 268.912H269.524C269.586 268.912 269.648 268.926 269.706 268.953C269.764 268.98 269.817 269.02 269.861 269.071C269.905 269.121 269.94 269.181 269.964 269.248C269.988 269.314 270 269.384 270 269.456Z"/><path fill="#4792FC" d="M166.11 104.595H30.0048C27.8784 104.598 25.8398 105.564 24.3362 107.282C22.8326 109.001 21.9868 111.33 21.9844 113.76V210.581C21.9868 213.011 22.8326 215.34 24.3362 217.058C25.8398 218.776 27.8784 219.743 30.0048 219.746H166.109C168.236 219.743 170.275 218.776 171.778 217.058C173.282 215.34 174.128 213.011 174.13 210.581V113.76C174.128 111.33 173.282 109 171.778 107.282C170.275 105.564 168.236 104.598 166.11 104.595Z"/><path fill="#3F3D56" d="M166.11 104.595H30.0048C27.8784 104.598 25.8398 105.564 24.3362 107.282C22.8326 109.001 21.9868 111.33 21.9844 113.76V210.581C21.9868 213.011 22.8326 215.34 24.3362 217.058C25.8398 218.776 27.8784 219.743 30.0048 219.746H166.109C168.236 219.743 170.275 218.776 171.778 217.058C173.282 215.34 174.128 213.011 174.13 210.581V113.76C174.128 111.33 173.282 109 171.778 107.282C170.275 105.564 168.236 104.598 166.11 104.595ZM168.742 174.144C168.709 184.001 165.297 193.45 159.237 200.466C153.176 207.481 144.951 211.503 136.325 211.669C122.515 211.875 143.967 211.955 127.31 211.955C89.2231 211.955 49.5085 211.539 34.6906 211.269C32.741 211.223 30.8844 210.308 29.5171 208.72C28.1498 207.131 27.3803 204.995 27.3728 202.767V113.767C27.3735 112.969 27.6508 112.204 28.144 111.639C28.6371 111.074 29.306 110.755 30.0043 110.752H166.104C166.802 110.753 167.472 111.07 167.966 111.634C168.46 112.197 168.739 112.961 168.742 113.759V174.144Z"/><path fill="#3F3D56" d="M149.355 48.8423H45.6579C44.7404 48.8438 43.8456 49.1688 43.0958 49.773C42.346 50.3771 41.7776 51.231 41.4683 52.2179L25.453 103.557C25.2139 104.324 25.1394 105.144 25.2356 105.95C25.3319 106.756 25.596 107.524 26.0059 108.189C26.4158 108.854 26.9595 109.398 27.5912 109.773C28.2229 110.148 28.9243 110.344 29.6363 110.346L168.712 110.628H168.718C169.454 110.628 170.178 110.419 170.826 110.02C171.474 109.621 172.026 109.045 172.431 108.343C172.836 107.641 173.082 106.835 173.148 105.997C173.213 105.16 173.096 104.317 172.806 103.544L153.443 51.9224C153.101 51.0078 152.531 50.2282 151.804 49.6806C151.077 49.1331 150.226 48.8415 149.355 48.8423Z"/><path fill="#3F3D56" d="M173.166 104.659C173.165 105.347 173.043 106.028 172.805 106.661L153.444 146.398C153.1 147.31 152.529 148.088 151.802 148.634C151.076 149.181 150.225 149.473 149.355 149.474H45.6592C44.7414 149.473 43.8462 149.149 43.0958 148.545C42.3454 147.941 41.7762 147.087 41.4661 146.1L25.4538 106.647C25.2575 106.019 25.1716 105.352 25.2009 104.686C25.2302 104.019 25.3742 103.366 25.6247 102.763C25.8751 102.16 26.2271 101.619 26.6605 101.172C27.0939 100.725 27.6002 100.379 28.1505 100.156C28.6266 99.9592 29.1288 99.8586 29.6349 99.8584L46.6235 99.8218L53.5574 99.8081L144.798 99.6253L151.736 99.6116L168.712 99.575H168.716C169.896 99.5752 171.028 100.111 171.862 101.064C172.697 102.018 173.165 103.31 173.166 104.659Z"/><path fill="#3F3D56" d="M40.2081 177.223C42.2644 177.223 70.5019 179.195 70.5019 181.544C70.5019 183.894 42.2644 185.731 40.2081 185.731C39.2206 185.731 38.2736 185.283 37.5754 184.485C36.8771 183.687 36.4849 182.605 36.4849 181.477C36.4849 180.349 36.8771 179.267 37.5754 178.469C38.2736 177.671 39.2206 177.223 40.2081 177.223Z"/><path fill="#E6E6E6" d="M142.897 17.6102H55.4619C53.1187 17.6133 50.8722 18.6782 49.2152 20.5714C47.5583 22.4646 46.6262 25.0315 46.6235 27.7089V149.474H149.355C150.199 149.477 151.025 149.203 151.736 148.683V27.7089C151.733 25.0315 150.801 22.4647 149.144 20.5714C147.487 18.6782 145.241 17.6133 142.897 17.6102Z"/><path fill="#fff" d="M109.525 25.798H61.6078C59.4741 25.8003 57.4283 26.7695 55.9192 28.493C54.41 30.2165 53.5608 32.5535 53.5576 34.9915V149.474H144.798V66.1015C144.787 55.4161 141.068 45.1719 134.455 37.6162C127.842 30.0605 118.877 25.8103 109.525 25.798Z"/><path fill="#E4E4E4" d="M129.254 139.307H69.1016C68.5817 139.307 68.083 139.543 67.7153 139.963C67.3477 140.383 67.1411 140.953 67.1411 141.547C67.1411 142.141 67.3477 142.711 67.7153 143.131C68.083 143.551 68.5817 143.787 69.1016 143.787H129.254C129.774 143.787 130.272 143.551 130.64 143.131C131.008 142.711 131.214 142.141 131.214 141.547C131.214 140.953 131.008 140.383 130.64 139.963C130.272 139.543 129.774 139.307 129.254 139.307Z"/><path fill="#E4E4E4" d="M129.254 130.447H69.1017C68.5812 130.447 68.082 130.683 67.714 131.104C67.3459 131.525 67.1392 132.095 67.1392 132.69C67.1392 133.284 67.3459 133.855 67.714 134.275C68.082 134.696 68.5812 134.932 69.1017 134.932H129.254C129.774 134.932 130.274 134.696 130.642 134.275C131.01 133.855 131.216 133.284 131.216 132.69C131.216 132.095 131.01 131.525 130.642 131.104C130.274 130.683 129.774 130.447 129.254 130.447Z"/><path fill="#E4E4E4" d="M95.1767 121.592H69.1016C68.5817 121.592 68.083 121.828 67.7153 122.248C67.3477 122.668 67.1411 123.238 67.1411 123.832C67.1411 124.426 67.3477 124.996 67.7153 125.416C68.083 125.836 68.5817 126.072 69.1016 126.072H95.1767C95.6966 126.072 96.1953 125.836 96.563 125.416C96.9306 124.996 97.1372 124.426 97.1372 123.832C97.1372 123.238 96.9306 122.668 96.563 122.248C96.1953 121.828 95.6966 121.592 95.1767 121.592Z"/><path fill="#E4E4E4" d="M129.254 103.04H69.1017C68.5812 103.04 68.082 103.277 67.714 103.697C67.3459 104.118 67.1392 104.688 67.1392 105.283C67.1392 105.877 67.3459 106.448 67.714 106.868C68.082 107.289 68.5812 107.525 69.1017 107.525H129.254C129.774 107.525 130.274 107.289 130.642 106.868C131.01 106.448 131.216 105.877 131.216 105.283C131.216 104.688 131.01 104.118 130.642 103.697C130.274 103.277 129.774 103.04 129.254 103.04Z"/><path fill="#E4E4E4" d="M129.254 94.185H69.1016C68.5817 94.185 68.083 94.421 67.7153 94.8411C67.3477 95.2612 67.1411 95.831 67.1411 96.4251C67.1411 97.0192 67.3477 97.589 67.7153 98.0091C68.083 98.4292 68.5817 98.6652 69.1016 98.6652H129.254C129.774 98.6652 130.272 98.4292 130.64 98.0091C131.008 97.589 131.214 97.0192 131.214 96.4251C131.214 95.831 131.008 95.2612 130.64 94.8411C130.272 94.421 129.774 94.185 129.254 94.185Z"/><path fill="#E4E4E4" d="M95.1767 85.3252H69.1017C68.5812 85.3252 68.082 85.5614 67.714 85.982C67.3459 86.4025 67.1392 86.9729 67.1392 87.5676C67.1392 88.1623 67.3459 88.7326 67.714 89.1532C68.082 89.5737 68.5812 89.81 69.1017 89.81H95.1767C95.6972 89.81 96.1964 89.5737 96.5644 89.1532C96.9325 88.7326 97.1392 88.1623 97.1392 87.5676C97.1392 86.9729 96.9325 86.4025 96.5644 85.982C96.1964 85.5614 95.6972 85.3252 95.1767 85.3252Z"/><path fill="#4792FC" d="M129.254 66.7735H69.1017C68.5812 66.7735 68.082 67.0098 67.714 67.4303C67.3459 67.8508 67.1392 68.4212 67.1392 69.0159C67.1392 69.6106 67.3459 70.181 67.714 70.6015C68.082 71.022 68.5812 71.2583 69.1017 71.2583H129.254C129.774 71.2583 130.274 71.022 130.642 70.6015C131.01 70.181 131.216 69.6106 131.216 69.0159C131.216 68.4212 131.01 67.8508 130.642 67.4303C130.274 67.0098 129.774 66.7735 129.254 66.7735Z"/><path fill="#4792FC" d="M129.254 57.9182H69.1017C68.5812 57.9182 68.082 58.1545 67.714 58.575C67.3459 58.9956 67.1392 59.5659 67.1392 60.1606C67.1392 60.7554 67.3459 61.3257 67.714 61.7462C68.082 62.1668 68.5812 62.403 69.1017 62.403H129.254C129.774 62.403 130.274 62.1668 130.642 61.7462C131.01 61.3257 131.216 60.7554 131.216 60.1606C131.216 59.5659 131.01 58.9956 130.642 58.575C130.274 58.1545 129.774 57.9182 129.254 57.9182Z"/><path fill="#4792FC" d="M95.1767 49.0584H69.1017C68.5812 49.0584 68.082 49.2947 67.714 49.7152C67.3459 50.1357 67.1392 50.7061 67.1392 51.3008C67.1392 51.8955 67.3459 52.4659 67.714 52.8864C68.082 53.3069 68.5812 53.5432 69.1017 53.5432H95.1767C95.6972 53.5432 96.1964 53.3069 96.5644 52.8864C96.9325 52.4659 97.1392 51.8955 97.1392 51.3008C97.1392 50.7061 96.9325 50.1357 96.5644 49.7152C96.1964 49.2947 95.6972 49.0584 95.1767 49.0584Z"/><path fill="#4792FC" d="M148.458 34.8933C156.891 34.8933 163.727 27.0821 163.727 17.4466C163.727 7.81112 156.891 -4.76837e-06 148.458 -4.76837e-06C140.025 -4.76837e-06 133.188 7.81112 133.188 17.4466C133.188 27.0821 140.025 34.8933 148.458 34.8933Z"/><path fill="#fff" d="M146.375 26.5268C146.111 26.5268 145.851 26.4566 145.615 26.3219C145.379 26.1871 145.174 25.9914 145.016 25.7504L140.85 19.404C140.716 19.2001 140.618 18.968 140.562 18.7208C140.506 18.4736 140.493 18.2163 140.525 17.9635C140.556 17.7107 140.631 17.4675 140.744 17.2477C140.858 17.0279 141.008 16.836 141.187 16.6828C141.366 16.5296 141.569 16.4183 141.786 16.3551C142.002 16.2919 142.228 16.2781 142.449 16.3146C142.67 16.3511 142.883 16.437 143.075 16.5675C143.267 16.6981 143.434 16.8706 143.568 17.0753L146.293 21.2269L153.293 9.23036C153.543 8.80209 153.931 8.50479 154.373 8.40384C154.815 8.3029 155.273 8.40659 155.648 8.6921C156.023 8.97761 156.283 9.42156 156.372 9.92628C156.46 10.431 156.369 10.9551 156.119 11.3834L147.788 25.6626C147.637 25.9208 147.435 26.134 147.197 26.2843C146.959 26.4345 146.693 26.5175 146.422 26.5262C146.406 26.5265 146.39 26.5268 146.375 26.5268Z"/></g><defs><clipPath id="clip0_366_624"><rect width="270" height="270" fill="#fff"/></clipPath></defs></svg>